<mxfile host="Electron" modified="2024-05-03T12:12:31.014Z" agent="Mozilla/5.0 (Windows NT 10.0; Win64; x64) AppleWebKit/537.36 (KHTML, like Gecko) draw.io/21.6.8 Chrome/114.0.5735.289 Electron/25.5.0 Safari/537.36" etag="_-lNOye11O_X9sg_L9ep" version="21.6.8" type="device">
  <diagram name="Page-1" id="vY85M9h08xzdCbBXcsBL">
    <mxGraphModel dx="1471" dy="850" grid="1" gridSize="10" guides="1" tooltips="1" connect="1" arrows="1" fold="1" page="1" pageScale="1" pageWidth="827" pageHeight="1169" math="0" shadow="0">
      <root>
        <mxCell id="0" />
        <mxCell id="1" parent="0" />
        <mxCell id="3WquMNs34_3FFJGKUzJI-1" value="" style="rounded=0;whiteSpace=wrap;html=1;movable=1;resizable=1;rotatable=1;deletable=1;editable=1;locked=0;connectable=1;" vertex="1" parent="1">
          <mxGeometry x="40" y="40" width="600" height="500" as="geometry" />
        </mxCell>
        <mxCell id="3WquMNs34_3FFJGKUzJI-158" value="" style="rounded=0;whiteSpace=wrap;html=1;glass=0;sketch=0;fillStyle=auto;sketchStyle=rough;fontSize=20;strokeColor=none;strokeWidth=1;fillColor=#EDEDED;gradientColor=none;gradientDirection=north;container=0;movable=1;resizable=1;rotatable=1;deletable=1;editable=1;locked=0;connectable=1;" vertex="1" parent="1">
          <mxGeometry x="140" y="420" width="480" height="100" as="geometry" />
        </mxCell>
        <mxCell id="3WquMNs34_3FFJGKUzJI-131" value="" style="rounded=0;whiteSpace=wrap;html=1;glass=0;sketch=0;fillStyle=auto;sketchStyle=rough;fontSize=20;strokeColor=none;strokeWidth=1;fillColor=#EDEDED;gradientColor=none;gradientDirection=north;container=0;movable=1;resizable=1;rotatable=1;deletable=1;editable=1;locked=0;connectable=1;" vertex="1" parent="1">
          <mxGeometry x="140" y="170" width="480" height="80" as="geometry" />
        </mxCell>
        <mxCell id="3WquMNs34_3FFJGKUzJI-95" value="" style="rounded=0;whiteSpace=wrap;html=1;glass=0;sketch=0;fillStyle=auto;sketchStyle=rough;fontSize=20;strokeColor=none;strokeWidth=1;fillColor=#EDEDED;gradientColor=none;gradientDirection=north;container=0;movable=1;resizable=1;rotatable=1;deletable=1;editable=1;locked=0;connectable=1;" vertex="1" parent="1">
          <mxGeometry x="140" y="60" width="480" height="100" as="geometry" />
        </mxCell>
        <mxCell id="3WquMNs34_3FFJGKUzJI-5" value="" style="rounded=0;whiteSpace=wrap;html=1;glass=0;sketch=0;fillStyle=auto;sketchStyle=rough;fontSize=20;strokeColor=none;strokeWidth=1;fillColor=#EDEDED;gradientColor=none;gradientDirection=north;container=0;movable=1;resizable=1;rotatable=1;deletable=1;editable=1;locked=0;connectable=1;" vertex="1" parent="1">
          <mxGeometry x="140" y="270" width="480" height="140" as="geometry" />
        </mxCell>
        <mxCell id="3WquMNs34_3FFJGKUzJI-94" value="" style="endArrow=baseDash;html=1;rounded=0;strokeWidth=2;dashed=1;startArrow=classic;startFill=1;endFill=0;strokeColor=#00CC00;startSize=6;endSize=24;exitX=1;exitY=0.5;exitDx=0;exitDy=0;" edge="1" parent="1" source="3WquMNs34_3FFJGKUzJI-89">
          <mxGeometry width="50" height="50" relative="1" as="geometry">
            <mxPoint x="360" y="260" as="sourcePoint" />
            <mxPoint x="600" y="300" as="targetPoint" />
          </mxGeometry>
        </mxCell>
        <mxCell id="3WquMNs34_3FFJGKUzJI-68" value="Original&lt;br&gt;schedule" style="text;html=1;strokeColor=none;fillColor=none;align=center;verticalAlign=middle;whiteSpace=wrap;rounded=0;glass=0;sketch=0;fillStyle=auto;sketchStyle=rough;fontFamily=Verdana;fontSize=18;container=0;horizontal=0;movable=1;resizable=1;rotatable=1;deletable=1;editable=1;locked=0;connectable=1;" vertex="1" parent="1">
          <mxGeometry x="40" y="60" width="100" height="100" as="geometry" />
        </mxCell>
        <mxCell id="3WquMNs34_3FFJGKUzJI-27" value="" style="rounded=1;whiteSpace=wrap;html=1;fontStyle=0;fontSize=20;strokeWidth=2;fillColor=#CCE5FF;" vertex="1" parent="1">
          <mxGeometry x="160" y="75" width="80" height="30" as="geometry" />
        </mxCell>
        <mxCell id="3WquMNs34_3FFJGKUzJI-69" value="" style="rounded=1;whiteSpace=wrap;html=1;fontStyle=0;fontSize=20;strokeWidth=2;fillColor=#CCE5FF;" vertex="1" parent="1">
          <mxGeometry x="160" y="115" width="40" height="30" as="geometry" />
        </mxCell>
        <mxCell id="3WquMNs34_3FFJGKUzJI-76" value="" style="rounded=1;whiteSpace=wrap;html=1;fontStyle=0;fontSize=20;strokeWidth=2;fillColor=#99FF99;" vertex="1" parent="1">
          <mxGeometry x="520" y="115" width="80" height="30" as="geometry" />
        </mxCell>
        <mxCell id="3WquMNs34_3FFJGKUzJI-78" value="" style="rounded=1;whiteSpace=wrap;html=1;fontStyle=0;fontSize=20;strokeWidth=2;fillColor=#CCE5FF;" vertex="1" parent="1">
          <mxGeometry x="440" y="115" width="80" height="30" as="geometry" />
        </mxCell>
        <mxCell id="3WquMNs34_3FFJGKUzJI-79" value="" style="rounded=1;whiteSpace=wrap;html=1;fontStyle=0;fontSize=20;strokeWidth=2;fillColor=#CCE5FF;" vertex="1" parent="1">
          <mxGeometry x="400" y="75" width="120" height="30" as="geometry" />
        </mxCell>
        <mxCell id="3WquMNs34_3FFJGKUzJI-82" value="" style="rounded=1;whiteSpace=wrap;html=1;fontStyle=0;fontSize=20;strokeWidth=2;fillColor=#CCE5FF;" vertex="1" parent="1">
          <mxGeometry x="160" y="325" width="80" height="30" as="geometry" />
        </mxCell>
        <mxCell id="3WquMNs34_3FFJGKUzJI-83" value="" style="rounded=1;whiteSpace=wrap;html=1;fontStyle=0;fontSize=20;strokeWidth=2;fillColor=#CCE5FF;" vertex="1" parent="1">
          <mxGeometry x="160" y="365" width="40" height="30" as="geometry" />
        </mxCell>
        <mxCell id="3WquMNs34_3FFJGKUzJI-90" value="" style="rounded=1;whiteSpace=wrap;html=1;fontStyle=0;fontSize=20;strokeWidth=2;fillColor=#CCE5FF;" vertex="1" parent="1">
          <mxGeometry x="440" y="365" width="80" height="30" as="geometry" />
        </mxCell>
        <mxCell id="3WquMNs34_3FFJGKUzJI-91" value="" style="rounded=1;whiteSpace=wrap;html=1;fontStyle=0;fontSize=20;strokeWidth=2;fillColor=#CCE5FF;" vertex="1" parent="1">
          <mxGeometry x="400" y="325" width="120" height="30" as="geometry" />
        </mxCell>
        <mxCell id="3WquMNs34_3FFJGKUzJI-100" value="" style="endArrow=none;dashed=1;html=1;strokeWidth=1;rounded=0;fontSize=20;startSize=5;endSize=5;targetPerimeterSpacing=0;jumpStyle=none;jumpSize=6;strokeColor=#808080;fontStyle=0;movable=1;resizable=1;rotatable=1;deletable=1;editable=1;locked=0;connectable=1;" edge="1" parent="1">
          <mxGeometry width="50" height="50" relative="1" as="geometry">
            <mxPoint x="140" y="70" as="sourcePoint" />
            <mxPoint x="620" y="70" as="targetPoint" />
          </mxGeometry>
        </mxCell>
        <mxCell id="3WquMNs34_3FFJGKUzJI-101" value="" style="endArrow=none;dashed=1;html=1;strokeWidth=1;rounded=0;fontSize=20;startSize=5;endSize=5;targetPerimeterSpacing=0;jumpStyle=none;jumpSize=6;strokeColor=#808080;fontStyle=0;movable=1;resizable=1;rotatable=1;deletable=1;editable=1;locked=0;connectable=1;" edge="1" parent="1">
          <mxGeometry width="50" height="50" relative="1" as="geometry">
            <mxPoint x="140" y="110" as="sourcePoint" />
            <mxPoint x="620" y="110" as="targetPoint" />
          </mxGeometry>
        </mxCell>
        <mxCell id="3WquMNs34_3FFJGKUzJI-102" value="" style="endArrow=none;dashed=1;html=1;strokeWidth=1;rounded=0;fontSize=20;startSize=5;endSize=5;targetPerimeterSpacing=0;jumpStyle=none;jumpSize=6;strokeColor=#808080;fontStyle=0;movable=1;resizable=1;rotatable=1;deletable=1;editable=1;locked=0;connectable=1;" edge="1" parent="1">
          <mxGeometry width="50" height="50" relative="1" as="geometry">
            <mxPoint x="140" y="320" as="sourcePoint" />
            <mxPoint x="620" y="320" as="targetPoint" />
          </mxGeometry>
        </mxCell>
        <mxCell id="3WquMNs34_3FFJGKUzJI-103" value="" style="endArrow=none;dashed=1;html=1;strokeWidth=1;rounded=0;fontSize=20;startSize=5;endSize=5;targetPerimeterSpacing=0;jumpStyle=none;jumpSize=6;strokeColor=#808080;fontStyle=0;movable=1;resizable=1;rotatable=1;deletable=1;editable=1;locked=0;connectable=1;" edge="1" parent="1">
          <mxGeometry width="50" height="50" relative="1" as="geometry">
            <mxPoint x="140" y="360" as="sourcePoint" />
            <mxPoint x="620" y="360" as="targetPoint" />
          </mxGeometry>
        </mxCell>
        <mxCell id="3WquMNs34_3FFJGKUzJI-104" value="" style="endArrow=none;dashed=1;html=1;strokeWidth=1;rounded=0;fontSize=20;startSize=5;endSize=5;targetPerimeterSpacing=0;jumpStyle=none;jumpSize=6;strokeColor=#808080;fontStyle=0;movable=1;resizable=1;rotatable=1;deletable=1;editable=1;locked=0;connectable=1;" edge="1" parent="1">
          <mxGeometry width="50" height="50" relative="1" as="geometry">
            <mxPoint x="140" y="400" as="sourcePoint" />
            <mxPoint x="620" y="400" as="targetPoint" />
          </mxGeometry>
        </mxCell>
        <mxCell id="3WquMNs34_3FFJGKUzJI-105" value="" style="endArrow=none;dashed=1;html=1;strokeWidth=1;rounded=0;fontSize=20;startSize=5;endSize=5;targetPerimeterSpacing=0;jumpStyle=none;jumpSize=6;strokeColor=#808080;fontStyle=0;movable=1;resizable=1;rotatable=1;deletable=1;editable=1;locked=0;connectable=1;" edge="1" parent="1">
          <mxGeometry width="50" height="50" relative="1" as="geometry">
            <mxPoint x="140" y="280" as="sourcePoint" />
            <mxPoint x="620" y="280" as="targetPoint" />
          </mxGeometry>
        </mxCell>
        <mxCell id="3WquMNs34_3FFJGKUzJI-106" value="" style="endArrow=none;dashed=1;html=1;strokeWidth=1;rounded=0;fontSize=20;startSize=5;endSize=5;targetPerimeterSpacing=0;jumpStyle=none;jumpSize=6;strokeColor=#808080;fontStyle=0;movable=1;resizable=1;rotatable=1;deletable=1;editable=1;locked=0;connectable=1;" edge="1" parent="1">
          <mxGeometry width="50" height="50" relative="1" as="geometry">
            <mxPoint x="140" y="150" as="sourcePoint" />
            <mxPoint x="620" y="150" as="targetPoint" />
          </mxGeometry>
        </mxCell>
        <mxCell id="3WquMNs34_3FFJGKUzJI-96" value="" style="endArrow=none;dashed=1;html=1;strokeWidth=4;rounded=0;strokeColor=#CCCCCC;dashPattern=1 1;jumpStyle=none;shadow=0;" edge="1" parent="1">
          <mxGeometry width="50" height="50" relative="1" as="geometry">
            <mxPoint x="360" y="156" as="sourcePoint" />
            <mxPoint x="360" y="60" as="targetPoint" />
          </mxGeometry>
        </mxCell>
        <mxCell id="3WquMNs34_3FFJGKUzJI-80" value="" style="endArrow=none;dashed=1;html=1;strokeWidth=4;rounded=0;strokeColor=#99FF99;dashPattern=1 1;jumpStyle=none;shadow=0;" edge="1" parent="1">
          <mxGeometry width="50" height="50" relative="1" as="geometry">
            <mxPoint x="360" y="160" as="sourcePoint" />
            <mxPoint x="360" y="60" as="targetPoint" />
          </mxGeometry>
        </mxCell>
        <mxCell id="3WquMNs34_3FFJGKUzJI-71" value="" style="rounded=1;whiteSpace=wrap;html=1;fontStyle=0;fontSize=20;strokeWidth=2;fillColor=#CCE5FF;" vertex="1" parent="1">
          <mxGeometry x="240" y="75" width="80" height="30" as="geometry" />
        </mxCell>
        <mxCell id="3WquMNs34_3FFJGKUzJI-98" value="" style="endArrow=none;dashed=1;html=1;strokeWidth=4;rounded=0;strokeColor=#CCCCCC;dashPattern=1 1;jumpStyle=none;shadow=0;" edge="1" parent="1">
          <mxGeometry width="50" height="50" relative="1" as="geometry">
            <mxPoint x="360" y="406" as="sourcePoint" />
            <mxPoint x="360" y="272" as="targetPoint" />
          </mxGeometry>
        </mxCell>
        <mxCell id="3WquMNs34_3FFJGKUzJI-99" value="" style="endArrow=none;dashed=1;html=1;strokeWidth=4;rounded=0;strokeColor=#99FF99;dashPattern=1 1;jumpStyle=none;shadow=0;" edge="1" parent="1">
          <mxGeometry width="50" height="50" relative="1" as="geometry">
            <mxPoint x="360" y="410" as="sourcePoint" />
            <mxPoint x="360" y="270" as="targetPoint" />
          </mxGeometry>
        </mxCell>
        <mxCell id="3WquMNs34_3FFJGKUzJI-85" value="" style="rounded=1;whiteSpace=wrap;html=1;fontStyle=0;fontSize=20;strokeWidth=2;fillColor=#CCE5FF;" vertex="1" parent="1">
          <mxGeometry x="240" y="325" width="80" height="30" as="geometry" />
        </mxCell>
        <mxCell id="3WquMNs34_3FFJGKUzJI-108" value="Modified&lt;br&gt;schedule" style="text;html=1;strokeColor=none;fillColor=none;align=center;verticalAlign=middle;whiteSpace=wrap;rounded=0;glass=0;sketch=0;fillStyle=auto;sketchStyle=rough;fontFamily=Verdana;fontSize=18;container=0;horizontal=0;movable=1;resizable=1;rotatable=1;deletable=1;editable=1;locked=0;connectable=1;" vertex="1" parent="1">
          <mxGeometry x="40" y="270" width="100" height="140" as="geometry" />
        </mxCell>
        <mxCell id="3WquMNs34_3FFJGKUzJI-109" value="" style="endArrow=none;html=1;strokeWidth=1;rounded=0;fontSize=20;startSize=5;endSize=5;targetPerimeterSpacing=0;jumpStyle=none;jumpSize=6;strokeColor=#000000;fontStyle=0;movable=1;resizable=1;rotatable=1;deletable=1;editable=1;locked=0;connectable=1;" edge="1" parent="1">
          <mxGeometry width="50" height="50" relative="1" as="geometry">
            <mxPoint x="140" y="260" as="sourcePoint" />
            <mxPoint x="620" y="260" as="targetPoint" />
          </mxGeometry>
        </mxCell>
        <mxCell id="3WquMNs34_3FFJGKUzJI-112" value="Modified resource availability" style="text;html=1;strokeColor=none;fillColor=none;align=center;verticalAlign=middle;whiteSpace=wrap;rounded=0;glass=0;sketch=0;fillStyle=auto;sketchStyle=rough;fontFamily=Verdana;fontSize=18;container=0;horizontal=0;movable=1;resizable=1;rotatable=1;deletable=1;editable=1;locked=0;connectable=1;" vertex="1" parent="1">
          <mxGeometry x="40" y="420" width="100" height="100" as="geometry" />
        </mxCell>
        <mxCell id="3WquMNs34_3FFJGKUzJI-129" value="" style="rounded=0;whiteSpace=wrap;html=1;fontSize=20;strokeWidth=1;fillColor=#B3B3B3;strokeColor=none;gradientColor=none;gradientDirection=north;sketch=1;sketchStyle=rough;fillStyle=dashed;perimeterSpacing=0;labelBackgroundColor=none;disableMultiStroke=0;disableMultiStrokeFill=0;dashOffset=10;dashGap=3;hachureGap=5;fillWeight=1;hachureAngle=-45;curveFitting=-1;simplification=1;zigzagOffset=-10;container=0;" vertex="1" parent="1">
          <mxGeometry x="140" y="190" width="480" height="40" as="geometry" />
        </mxCell>
        <mxCell id="3WquMNs34_3FFJGKUzJI-132" value="" style="rounded=0;whiteSpace=wrap;html=1;fillColor=#CCE5FF;" vertex="1" parent="1">
          <mxGeometry x="160" y="210" width="40" height="20" as="geometry" />
        </mxCell>
        <mxCell id="3WquMNs34_3FFJGKUzJI-133" value="" style="rounded=0;whiteSpace=wrap;html=1;fillColor=#CCE5FF;" vertex="1" parent="1">
          <mxGeometry x="160" y="190" width="80" height="20" as="geometry" />
        </mxCell>
        <mxCell id="3WquMNs34_3FFJGKUzJI-134" value="" style="rounded=0;whiteSpace=wrap;html=1;fillColor=#CCE5FF;" vertex="1" parent="1">
          <mxGeometry x="240" y="190" width="80" height="20" as="geometry" />
        </mxCell>
        <mxCell id="3WquMNs34_3FFJGKUzJI-135" value="" style="rounded=0;whiteSpace=wrap;html=1;fillColor=#CCE5FF;" vertex="1" parent="1">
          <mxGeometry x="200" y="210" width="160" height="20" as="geometry" />
        </mxCell>
        <mxCell id="3WquMNs34_3FFJGKUzJI-137" value="" style="rounded=0;whiteSpace=wrap;html=1;fillColor=#CCE5FF;" vertex="1" parent="1">
          <mxGeometry x="360" y="190" width="40" height="20" as="geometry" />
        </mxCell>
        <mxCell id="3WquMNs34_3FFJGKUzJI-138" value="" style="rounded=0;whiteSpace=wrap;html=1;fillColor=#CCE5FF;" vertex="1" parent="1">
          <mxGeometry x="400" y="190" width="120" height="20" as="geometry" />
        </mxCell>
        <mxCell id="3WquMNs34_3FFJGKUzJI-139" value="" style="rounded=0;whiteSpace=wrap;html=1;fillColor=#CCE5FF;" vertex="1" parent="1">
          <mxGeometry x="360" y="210" width="80" height="20" as="geometry" />
        </mxCell>
        <mxCell id="3WquMNs34_3FFJGKUzJI-140" value="" style="rounded=0;whiteSpace=wrap;html=1;fillColor=#CCE5FF;" vertex="1" parent="1">
          <mxGeometry x="440" y="210" width="80" height="20" as="geometry" />
        </mxCell>
        <mxCell id="3WquMNs34_3FFJGKUzJI-141" value="" style="rounded=0;whiteSpace=wrap;html=1;fillColor=#99FF99;" vertex="1" parent="1">
          <mxGeometry x="520" y="210" width="80" height="20" as="geometry" />
        </mxCell>
        <mxCell id="3WquMNs34_3FFJGKUzJI-124" value="" style="endArrow=none;html=1;rounded=0;fontSize=20;targetPerimeterSpacing=0;strokeWidth=2;startArrow=none;startFill=0;endSize=5;startSize=5;endFill=0;" edge="1" parent="1">
          <mxGeometry width="50" height="50" relative="1" as="geometry">
            <mxPoint x="140" y="190" as="sourcePoint" />
            <mxPoint x="620" y="189.74999999999994" as="targetPoint" />
          </mxGeometry>
        </mxCell>
        <mxCell id="3WquMNs34_3FFJGKUzJI-130" value="" style="endArrow=none;html=1;rounded=0;fontSize=20;targetPerimeterSpacing=0;strokeWidth=2;startArrow=none;startFill=0;endSize=5;startSize=5;jumpStyle=none;jumpSize=6;dashed=1;dashPattern=1 1;endFill=0;" edge="1" parent="1">
          <mxGeometry width="50" height="50" relative="1" as="geometry">
            <mxPoint x="140" y="230" as="sourcePoint" />
            <mxPoint x="620" y="230" as="targetPoint" />
          </mxGeometry>
        </mxCell>
        <mxCell id="3WquMNs34_3FFJGKUzJI-145" value="" style="rounded=0;whiteSpace=wrap;html=1;fontSize=20;strokeWidth=1;fillColor=#B3B3B3;strokeColor=none;gradientColor=none;gradientDirection=north;sketch=1;sketchStyle=rough;fillStyle=dashed;perimeterSpacing=0;labelBackgroundColor=none;disableMultiStroke=0;disableMultiStrokeFill=0;dashOffset=10;dashGap=3;hachureGap=5;fillWeight=1;hachureAngle=-45;curveFitting=-1;simplification=1;zigzagOffset=-10;container=0;" vertex="1" parent="1">
          <mxGeometry x="140" y="460" width="480" height="40" as="geometry" />
        </mxCell>
        <mxCell id="3WquMNs34_3FFJGKUzJI-146" value="" style="rounded=0;whiteSpace=wrap;html=1;fillColor=#CCE5FF;" vertex="1" parent="1">
          <mxGeometry x="160" y="480" width="40" height="20" as="geometry" />
        </mxCell>
        <mxCell id="3WquMNs34_3FFJGKUzJI-147" value="" style="rounded=0;whiteSpace=wrap;html=1;fillColor=#CCE5FF;" vertex="1" parent="1">
          <mxGeometry x="160" y="460" width="80" height="20" as="geometry" />
        </mxCell>
        <mxCell id="3WquMNs34_3FFJGKUzJI-148" value="" style="rounded=0;whiteSpace=wrap;html=1;fillColor=#CCE5FF;" vertex="1" parent="1">
          <mxGeometry x="240" y="460" width="80" height="20" as="geometry" />
        </mxCell>
        <mxCell id="3WquMNs34_3FFJGKUzJI-149" value="" style="rounded=0;whiteSpace=wrap;html=1;fillColor=#CCE5FF;" vertex="1" parent="1">
          <mxGeometry x="200" y="480" width="160" height="20" as="geometry" />
        </mxCell>
        <mxCell id="3WquMNs34_3FFJGKUzJI-150" value="" style="rounded=0;whiteSpace=wrap;html=1;fillColor=#CCE5FF;" vertex="1" parent="1">
          <mxGeometry x="360" y="460" width="40" height="20" as="geometry" />
        </mxCell>
        <mxCell id="3WquMNs34_3FFJGKUzJI-151" value="" style="rounded=0;whiteSpace=wrap;html=1;fillColor=#CCE5FF;" vertex="1" parent="1">
          <mxGeometry x="400" y="460" width="120" height="20" as="geometry" />
        </mxCell>
        <mxCell id="3WquMNs34_3FFJGKUzJI-152" value="" style="rounded=0;whiteSpace=wrap;html=1;fillColor=#CCE5FF;" vertex="1" parent="1">
          <mxGeometry x="360" y="480" width="80" height="20" as="geometry" />
        </mxCell>
        <mxCell id="3WquMNs34_3FFJGKUzJI-153" value="" style="rounded=0;whiteSpace=wrap;html=1;fillColor=#CCE5FF;" vertex="1" parent="1">
          <mxGeometry x="440" y="480" width="80" height="20" as="geometry" />
        </mxCell>
        <mxCell id="3WquMNs34_3FFJGKUzJI-154" value="" style="rounded=0;whiteSpace=wrap;html=1;fillColor=#99FF99;" vertex="1" parent="1">
          <mxGeometry x="320" y="460" width="40" height="20" as="geometry" />
        </mxCell>
        <mxCell id="3WquMNs34_3FFJGKUzJI-156" value="" style="endArrow=none;html=1;rounded=0;fontSize=20;targetPerimeterSpacing=0;strokeWidth=2;startArrow=none;startFill=0;endSize=5;startSize=5;jumpStyle=none;jumpSize=6;dashed=1;dashPattern=1 1;endFill=0;" edge="1" parent="1">
          <mxGeometry width="50" height="50" relative="1" as="geometry">
            <mxPoint x="140" y="500" as="sourcePoint" />
            <mxPoint x="620" y="500" as="targetPoint" />
          </mxGeometry>
        </mxCell>
        <mxCell id="3WquMNs34_3FFJGKUzJI-159" value="" style="endArrow=oval;html=1;rounded=0;fontSize=20;targetPerimeterSpacing=0;strokeWidth=2;startArrow=none;startFill=0;endSize=5;startSize=5;endFill=0;exitX=0;exitY=0;exitDx=0;exitDy=0;" edge="1" parent="1" source="3WquMNs34_3FFJGKUzJI-145">
          <mxGeometry width="50" height="50" relative="1" as="geometry">
            <mxPoint x="180" y="460" as="sourcePoint" />
            <mxPoint x="280" y="460" as="targetPoint" />
          </mxGeometry>
        </mxCell>
        <mxCell id="3WquMNs34_3FFJGKUzJI-164" value="Original&lt;br&gt;resource&lt;br&gt;availability" style="text;html=1;strokeColor=none;fillColor=none;align=center;verticalAlign=middle;whiteSpace=wrap;rounded=0;glass=0;sketch=0;fillStyle=auto;sketchStyle=rough;fontFamily=Verdana;fontSize=18;container=0;horizontal=0;movable=1;resizable=1;rotatable=1;deletable=1;editable=1;locked=0;connectable=1;" vertex="1" parent="1">
          <mxGeometry x="40" y="170" width="100" height="80" as="geometry" />
        </mxCell>
        <mxCell id="3WquMNs34_3FFJGKUzJI-72" value="" style="rounded=1;whiteSpace=wrap;html=1;fontStyle=0;fontSize=20;strokeWidth=2;fillColor=#CCE5FF;" vertex="1" parent="1">
          <mxGeometry x="360" y="75" width="40" height="30" as="geometry" />
        </mxCell>
        <mxCell id="3WquMNs34_3FFJGKUzJI-70" value="" style="rounded=1;whiteSpace=wrap;html=1;fontStyle=0;fontSize=20;strokeWidth=2;fillColor=#CCE5FF;" vertex="1" parent="1">
          <mxGeometry x="200" y="115" width="160" height="30" as="geometry" />
        </mxCell>
        <mxCell id="3WquMNs34_3FFJGKUzJI-73" value="" style="rounded=1;whiteSpace=wrap;html=1;fontStyle=0;fontSize=20;strokeWidth=2;fillColor=#CCE5FF;" vertex="1" parent="1">
          <mxGeometry x="360" y="115" width="80" height="30" as="geometry" />
        </mxCell>
        <mxCell id="3WquMNs34_3FFJGKUzJI-86" value="" style="rounded=1;whiteSpace=wrap;html=1;fontStyle=0;fontSize=20;strokeWidth=2;fillColor=#CCE5FF;" vertex="1" parent="1">
          <mxGeometry x="360" y="325" width="40" height="30" as="geometry" />
        </mxCell>
        <mxCell id="3WquMNs34_3FFJGKUzJI-87" value="" style="rounded=1;whiteSpace=wrap;html=1;fontStyle=0;fontSize=20;strokeWidth=2;fillColor=#CCE5FF;" vertex="1" parent="1">
          <mxGeometry x="360" y="365" width="80" height="30" as="geometry" />
        </mxCell>
        <mxCell id="3WquMNs34_3FFJGKUzJI-84" value="" style="rounded=1;whiteSpace=wrap;html=1;fontStyle=0;fontSize=20;strokeWidth=2;fillColor=#CCE5FF;" vertex="1" parent="1">
          <mxGeometry x="200" y="365" width="160" height="30" as="geometry" />
        </mxCell>
        <mxCell id="3WquMNs34_3FFJGKUzJI-89" value="" style="rounded=1;whiteSpace=wrap;html=1;fontStyle=0;fontSize=20;strokeWidth=2;fillColor=#99FF99;" vertex="1" parent="1">
          <mxGeometry x="280" y="285" width="80" height="30" as="geometry" />
        </mxCell>
        <mxCell id="3WquMNs34_3FFJGKUzJI-167" value="" style="rounded=0;whiteSpace=wrap;html=1;fillColor=#99FF99;" vertex="1" parent="1">
          <mxGeometry x="280" y="440" width="40" height="20" as="geometry" />
        </mxCell>
        <mxCell id="3WquMNs34_3FFJGKUzJI-160" value="" style="endArrow=none;html=1;rounded=0;fontSize=20;targetPerimeterSpacing=0;strokeWidth=2;startArrow=oval;startFill=1;endSize=5;startSize=5;endFill=0;exitX=0;exitY=0;exitDx=0;exitDy=0;" edge="1" parent="1" source="3WquMNs34_3FFJGKUzJI-154">
          <mxGeometry width="50" height="50" relative="1" as="geometry">
            <mxPoint x="440" y="460" as="sourcePoint" />
            <mxPoint x="620" y="460" as="targetPoint" />
          </mxGeometry>
        </mxCell>
        <mxCell id="3WquMNs34_3FFJGKUzJI-161" value="" style="endArrow=oval;html=1;rounded=0;fontSize=20;targetPerimeterSpacing=0;strokeWidth=2;startArrow=oval;startFill=0;endSize=5;startSize=5;jumpStyle=none;jumpSize=6;dashed=1;dashPattern=1 1;endFill=1;" edge="1" parent="1">
          <mxGeometry width="50" height="50" relative="1" as="geometry">
            <mxPoint x="280" y="460" as="sourcePoint" />
            <mxPoint x="280" y="440" as="targetPoint" />
          </mxGeometry>
        </mxCell>
        <mxCell id="3WquMNs34_3FFJGKUzJI-162" value="" style="endArrow=oval;html=1;rounded=0;fontSize=20;targetPerimeterSpacing=0;strokeWidth=2;startArrow=oval;startFill=1;endSize=5;startSize=5;endFill=0;" edge="1" parent="1">
          <mxGeometry width="50" height="50" relative="1" as="geometry">
            <mxPoint x="280" y="440" as="sourcePoint" />
            <mxPoint x="320" y="440" as="targetPoint" />
          </mxGeometry>
        </mxCell>
        <mxCell id="3WquMNs34_3FFJGKUzJI-163" value="" style="endArrow=oval;html=1;rounded=0;fontSize=20;targetPerimeterSpacing=0;strokeWidth=2;startArrow=oval;startFill=0;endSize=5;startSize=5;jumpStyle=none;jumpSize=6;dashed=1;dashPattern=1 1;endFill=1;" edge="1" parent="1">
          <mxGeometry width="50" height="50" relative="1" as="geometry">
            <mxPoint x="319.58" y="440" as="sourcePoint" />
            <mxPoint x="320" y="460" as="targetPoint" />
          </mxGeometry>
        </mxCell>
      </root>
    </mxGraphModel>
  </diagram>
</mxfile>
